# xmcd
#
# Track frame offsets:
#	150
#	13461
#	29594
#	44541
#	58733
#	74976
#	87714
#	104274
#	117859
#	133676
#	146514
#	159495
#	175309
#
# Disc length: 2554 seconds
#
# Revision: 1
# Processed by: cddbd v1.4PL0 Copyright (c) Steve Scherf et al.
# Submitted via: audiograbber 1.80
#
DISCID=cb09f80d
DTITLE=EXTERMINADOR, A calzon Quitado - A CALZON QUITADO
DYEAR=1900
DGENRE=
TTITLE0=me vale
TTITLE1=PITO PEREZ
TTITLE2=EL RANCHERO ROCK
TTITLE3=EL PERDEDOR
TTITLE4=EL DIABLO DE LA FRONTERA
TTITLE5=NUESTRA CULPA
TTITLE6=VUELVE
TTITLE7=A CALZON QUITADO
TTITLE8=EL TUN TUN DEL CORAZON
TTITLE9=MI MAYOR NECESIDAD
TTITLE10=EL GALLO DE OAXACA
TTITLE11=DESPUES DE MARTE
TTITLE12=LA VOZ DE LA EXPERIENCIA
EXTD=
EXTT0=
EXTT1=
EXTT2=
EXTT3=
EXTT4=
EXTT5=
EXTT6=
EXTT7=
EXTT8=
EXTT9=
EXTT10=
EXTT11=
EXTT12=
PLAYORDER=
